<?xml version="1.0" encoding="UTF-8"?>
<svg width="430px" height="190px" viewBox="0 0 430 190" version="1.1" xmlns="http://www.w3.org/2000/svg" xmlns:xlink="http://www.w3.org/1999/xlink">
    <!-- Generator: sketchtool 41.1 (35376) - http://www.bohemiancoding.com/sketch -->
    <title>36D5C655-D48F-43D0-9CCD-16EBE6EE3311</title>
    <desc>Created with sketchtool.</desc>
    <defs></defs>
    <g id="newHome" stroke="none" stroke-width="1" fill="none" fill-rule="evenodd">
        <g id="Muse3.0-新首页" transform="translate(-130.000000, -227.000000)">
            <g id="KV" transform="translate(-288.000000, 0.000000)">
                <g id="banner-copy-2">
                    <g id="Bitmap">
                        <g id="Group-9" transform="translate(410.000000, 220.000000)">
                            <g id="museLOGO" transform="translate(0.000000, 56.000000)">
                                <rect id="Rectangle-16" fill="#FFFFFF" opacity="0.699999988" x="10" y="45" width="128.422977" height="2"></rect>
                                <g id="Group" transform="translate(0.000000, 0.810811)"></g>
                                <path d="M17.0957218,80.6377438 L20.2145654,80.6377438 L20.2145654,77.9799765 L27.912137,77.9799765 L27.912137,80.7706322 L31.0641598,80.7706322 L31.0641598,77.9799765 L38.4631186,77.9799765 L38.4631186,75.0232103 L31.0641598,75.0232103 L31.0641598,72 L27.912137,72 L27.912137,75.0232103 L20.2145654,75.0232103 L20.2145654,72 L17.0957218,72 L17.0957218,75.0232103 L9.46450863,75.0232103 L9.46450863,77.9799765 L17.0957218,77.9799765 L17.0957218,80.6377438 Z M17.3611553,81.1692973 C15.5031208,85.0230599 12.3179188,88.7771563 9,91.1359248 C9.76312132,91.6342562 10.9907513,92.6973631 11.5547974,93.2953608 C12.5169939,92.4980306 13.5123695,91.6010341 14.474566,90.5379271 L14.474566,102.464658 L17.6265888,102.464658 L17.6265888,86.7173866 C18.6551436,85.2556146 19.6505192,83.6609542 20.4136405,82.0995159 L17.3611553,81.1692973 Z M29.504738,98.9763384 C27.9784953,98.9763384 27.7130618,98.6773396 27.7130618,97.3152338 L27.7130618,91.6674783 C31.3295933,89.9399295 34.813408,88.0794924 37.5672806,86.152611 L35.4106334,83.6277321 C33.3867029,85.2556146 30.6660095,86.8834971 27.7130618,88.4781575 L27.7130618,81.4682961 L24.561039,81.4682961 L24.561039,90.10604 C22.8689004,90.9365922 21.1435827,91.7007004 19.4514441,92.3983643 C19.9159527,93.029584 20.4799989,94.0262468 20.679074,94.7903549 C21.9730624,94.2588014 23.2670507,93.6940259 24.561039,93.1292503 L24.561039,97.3152338 C24.561039,100.90322 25.5232354,101.933105 29.1397669,101.933105 L34.7138704,101.933105 C37.99861,101.933105 38.8612689,100.371666 39.2594191,95.2554642 C38.3635811,95.0229095 37.0695927,94.5245781 36.3396506,93.9598026 C36.1737547,98.1457861 35.9083212,98.9763384 34.5147953,98.9763384 L29.504738,98.9763384 Z M62.3853129,76.2524277 L62.3853129,78.7773067 L71.9740981,78.7773067 L71.9740981,76.2524277 L69.0211504,76.2524277 C68.6230002,75.0232103 67.9594164,73.4285499 67.3290119,72.1661105 L64.8405728,72.8305523 C65.3382606,73.8604371 65.8359484,75.1560987 66.2340987,76.2524277 L62.3853129,76.2524277 Z M66.3336362,84.4582844 C66.2672779,82.9632902 65.8359484,80.7706322 65.238723,79.0763055 L63.1484342,79.607859 C63.7456596,81.3354078 64.1438099,83.59451 64.176989,85.0230599 L66.3336362,84.4582844 Z M51.5357186,76.2524277 L48.5827709,76.2524277 C48.1514414,75.0232103 47.4878577,73.4949941 46.8242739,72.2325546 L44.3358348,72.9302186 C44.8335227,73.9268813 45.3643897,75.1893208 45.7293607,76.2524277 L42.245546,76.2524277 L42.245546,78.7773067 L51.5357186,78.7773067 L51.5357186,76.2524277 Z M46.0943318,84.4250623 C46.0611526,82.9965123 45.6630023,80.8370764 45.0989562,79.2091939 L43.0086673,79.7075253 C43.5727135,81.4018519 43.9376846,83.59451 43.9045054,84.9898378 L46.0943318,84.4250623 Z M51.2371059,93.4614712 L51.2371059,90.9365922 L48.3505165,90.9365922 L48.3505165,87.6476052 L51.6352561,87.6476052 L51.6352561,85.1227262 L49.3458922,85.1227262 C49.8767592,83.4948437 50.4408054,81.4018519 50.9384932,79.5746369 L48.5827709,79.0763055 C48.3505165,80.8370764 47.7532912,83.3951774 47.2556033,85.1227262 L42.0132917,85.1227262 L42.0132917,87.6476052 L45.6298232,87.6476052 L45.6298232,90.9365922 L42.3782628,90.9365922 L42.3782628,93.4614712 L45.596644,93.4614712 C45.430748,95.919906 44.7671643,98.810228 42.3119044,100.570999 C42.942309,101.002886 43.7717886,101.966327 44.1699389,102.531102 C47.1228866,100.172334 48.085083,96.5843478 48.2841582,93.4614712 L51.2371059,93.4614712 Z M60.5936368,72.1661105 C58.6692439,73.1295511 55.3513251,74.159436 52.3983774,74.7574336 L52.3651982,74.7574336 L52.3651982,81.0364089 C52.3651982,86.5512761 52.1329439,94.8567991 49.7108632,100.936442 C50.208551,101.135774 51.2039267,101.800216 51.5688977,102.232103 C54.1236952,95.8534618 54.5218454,86.7838308 54.5218454,81.0364089 L54.5218454,76.4849824 C54.9863541,76.3853161 55.4508627,76.2856498 55.9153713,76.2192056 L55.9153713,80.9699647 C55.9153713,86.5180541 55.9153713,94.2255793 53.1614987,99.8068907 C53.5928282,100.139112 54.5218454,100.969664 54.8204581,101.434773 C55.2186084,101.102552 55.9153713,100.770331 59.0673941,99.906557 C59.1669317,100.604221 59.2332901,101.202219 59.2996485,101.766994 L60.9586078,101.401551 C60.7263535,99.1424489 60.0627698,95.8202397 59.4323652,93.1956945 L57.8397642,93.5279154 C58.1383769,94.7571328 58.4369896,96.1524606 58.6692439,97.5477885 L56.1144464,98.1457861 C57.9061226,92.4315864 57.972481,85.787168 57.972481,80.9699647 L57.972481,75.6876522 C58.4038104,75.5879859 58.7687815,75.4550975 59.2001109,75.3222092 C59.4323652,86.6177203 59.9632322,96.8169025 62.5180297,102.431436 C62.9161799,101.800216 63.7124804,101.002886 64.2433474,100.604221 C61.8212667,95.7205734 61.3235789,85.3885029 61.1245038,74.6909894 C61.68855,74.524879 62.219417,74.3255464 62.750284,74.0929918 L60.5936368,72.1661105 Z M72.4386068,87.6808273 L72.4386068,85.1559483 L69.9501677,85.1559483 C70.4478555,83.4948437 71.0119017,81.3354078 71.4764103,79.4749706 L69.0875088,78.9766392 C68.8552545,80.7706322 68.2580291,83.3951774 67.7603413,85.1559483 L62.2525962,85.1559483 L62.2525962,87.6808273 L65.8027692,87.6808273 L65.8027692,91.6010341 L62.8830007,91.6010341 L62.8830007,94.125913 L65.8027692,94.125913 L65.8027692,102.464658 L68.589821,102.464658 L68.589821,94.125913 L72.0072773,94.125913 L72.0072773,91.6010341 L68.589821,91.6010341 L68.589821,87.6808273 L72.4386068,87.6808273 Z" id="花瓣" fill="#FFFFFF"></path>
                                <path d="M108.39676,92.7305852 L108.39676,91.2355911 L94.0965304,91.2355911 C94.3287847,90.3053725 94.4946806,89.2422656 94.6273974,88.1791586 L108.629015,88.1791586 L108.629015,86.7173866 L94.6937558,86.7173866 L94.6937558,83.2622891 L105.609708,83.2622891 L105.609708,81.8337391 L94.6937558,81.8337391 L94.6937558,78.51153 L107.16913,78.51153 L107.16913,77.0165358 L99.6706339,77.0165358 C100.63283,75.7208743 101.760923,74.0929918 102.623582,72.6644418 L101.06416,72 C100.334218,73.4949941 98.973871,75.5879859 97.912137,77.0165358 L88.4228893,77.0165358 L89.5841609,76.4185382 C89.0201147,75.1893208 87.7261263,73.3621058 86.4653172,72 L85.1049705,72.6312197 C86.2994213,73.9601034 87.493872,75.7540964 88.0910974,77.0165358 L80.7584969,77.0165358 L80.7584969,78.51153 L93.0679756,78.51153 L93.0679756,81.8337391 L82.4838147,81.8337391 L82.4838147,83.2622891 L93.0679756,83.2622891 L93.0679756,86.7173866 L79.3981503,86.7173866 L79.3981503,88.1791586 L92.968438,88.1791586 C92.8357212,89.2754877 92.6366461,90.3053725 92.4043918,91.2355911 L80.1612716,91.2355911 L80.1612716,92.7305852 L91.9398832,92.7305852 C90.4136405,96.8169025 87.0625426,99.3417814 79,100.604221 C79.2654335,100.969664 79.6635838,101.667328 79.8294797,102.032771 C88.4892477,100.570999 92.0725999,97.6142327 93.6983801,92.7305852 L93.7647385,92.7305852 C96.2531776,97.8135652 101.130518,100.803553 107.799535,101.999549 C107.99861,101.567662 108.429939,100.90322 108.794911,100.537777 C102.524044,99.5743361 97.8457786,97.016235 95.4568771,92.7305852 L108.39676,92.7305852 Z M136.831324,80.0729683 L127.806585,80.0729683 L127.806585,75.0564324 L136.831324,75.0564324 L136.831324,80.0729683 Z M136.831324,86.5844982 L127.806585,86.5844982 L127.806585,81.5015182 L136.831324,81.5015182 L136.831324,86.5844982 Z M117.089707,81.5015182 L126.280342,81.5015182 L126.280342,86.5844982 L117.089707,86.5844982 L117.089707,81.5015182 Z M117.089707,75.0564324 L126.280342,75.0564324 L126.280342,80.0729683 L117.089707,80.0729683 L117.089707,75.0564324 Z M138.390746,73.5614383 L115.530286,73.5614383 L115.530286,88.0462703 L138.390746,88.0462703 L138.390746,73.5614383 Z M131.389937,93.9930247 C129.830515,92.4980306 126.77803,90.5047051 124.190054,89.1758214 L123.12832,90.1724841 C125.716296,91.5345899 128.768781,93.6608038 130.295024,95.1225758 L131.389937,93.9930247 Z M113.838147,100.604221 C115.530286,98.444785 116.724736,94.9232432 117.521037,92.298698 L116.127511,91.8003666 C115.397569,94.3252456 114.13676,97.747121 112.411442,99.8401128 L113.838147,100.604221 Z M124.156874,99.9397791 C122.132944,99.9397791 121.767973,99.7404465 121.767973,98.8434501 L121.767973,91.567812 L120.175372,91.567812 L120.175372,98.8434501 C120.175372,100.936442 121.038031,101.434773 124.156874,101.434773 L131.522654,101.434773 C134.342885,101.434773 134.906931,100.404888 135.172365,95.9863502 C134.707856,95.8866839 134.077451,95.6541293 133.646122,95.3551304 C133.480226,99.3417814 133.214793,99.9397791 131.456296,99.9397791 L124.156874,99.9397791 Z M135.338261,91.933255 C137.329012,94.4913561 139.352942,98.0128978 140.149243,100.272 L141.675485,99.5743361 C140.846006,97.3484559 138.755717,93.8933584 136.764966,91.3352573 L135.338261,91.933255 Z" id="美思" fill="#FFFFFF"></path>
                                <path d="M17,134.488094 L18.3686415,134.488094 L18.3686415,122.976639 C18.3686415,121.481645 18.2691039,119.48832 18.1944508,117.968409 L18.2939883,117.968409 L19.7123986,122.02981 L23.5445948,132.544602 L24.7390455,132.544602 L28.5463573,122.02981 L29.9647676,117.968409 L30.0643051,117.968409 C29.989652,119.48832 29.8901144,121.481645 29.8901144,122.976639 L29.8901144,134.488094 L31.3085247,134.488094 L31.3085247,116.323915 L29.3177734,116.323915 L25.5851148,126.763958 C25.1371958,128.084536 24.7141611,129.430031 24.2413577,130.750609 L24.1418201,130.750609 L22.7234099,126.763958 L18.9907513,116.323915 L17,116.323915 L17,134.488094 Z M62.0601017,134.812009 C65.3199569,134.812009 68.2811994,133.117683 68.2811994,127.386872 L68.2811994,116.323915 L66.8627892,116.323915 L66.8627892,127.312122 C66.8627892,132.04627 64.623194,133.466515 62.0601017,133.466515 C59.5467783,133.466515 57.3569519,132.04627 57.3569519,127.312122 L57.3569519,116.323915 L55.8638885,116.323915 L55.8638885,127.386872 C55.8638885,133.117683 58.8002466,134.812009 62.0601017,134.812009 L62.0601017,134.812009 Z M97.3655223,134.812009 C100.92399,134.812009 103.238239,132.669184 103.238239,129.878529 C103.238239,127.11279 101.496331,125.966627 99.4309268,125.044714 L96.7185282,123.848719 C95.3996555,123.275638 93.6328637,122.503224 93.6328637,120.435149 C93.6328637,118.566407 95.1756959,117.345495 97.4899443,117.345495 C99.2816204,117.345495 100.700031,118.068075 101.770059,119.164404 L102.616129,118.192658 C101.471447,116.94683 99.6797707,116 97.4899443,116 C94.4042798,116 92.1149159,117.868743 92.1149159,120.559732 C92.1149159,123.225805 94.1803203,124.371967 95.7978057,125.094548 L98.5102043,126.290543 C100.30188,127.087873 101.720291,127.785537 101.720291,129.978195 C101.720291,132.04627 100.053037,133.466515 97.3655223,133.466515 C95.3001179,133.466515 93.4337886,132.544602 92.1149159,131.049608 L91.1941934,132.096103 C92.6374881,133.71568 94.7277769,134.812009 97.3655223,134.812009 L97.3655223,134.812009 Z M126.350308,134.488094 L136.652445,134.488094 L136.652445,133.192432 L127.843371,133.192432 L127.843371,125.493213 L135.03496,125.493213 L135.03496,124.222468 L127.843371,124.222468 L127.843371,117.59466 L136.378717,117.59466 L136.378717,116.323915 L126.350308,116.323915 L126.350308,134.488094 Z" id="MUSE" fill="#FFFFFF"></path>
                            </g>
                            <text id="有品质的设计服务" font-family="PingFangSC-Light, PingFang SC" font-size="54" font-weight="300" line-spacing="70" fill="#FFFFFF">
                                <tspan x="8" y="57">有品质</tspan>
                                <tspan x="170" y="57" font-family="PingFangSC-Ultralight, PingFang SC" font-weight="200">的设计服务</tspan>
                            </text>
                        </g>
                    </g>
                </g>
            </g>
        </g>
    </g>
</svg>